<svg xmlns="http://www.w3.org/2000/svg" viewBox="0 0 51.73 9.91"><path d="M7.29 9.91c-1.15-.34-2.11-.7-3.2-1.14-.18-.07-.37-.11-.55-.12C1.71 8.53 0 7.19 0 4.54 0 2.1 1.54.29 3.96.29s3.81 1.87 3.81 4.09c0 1.83-.85 3.13-1.91 3.61v.05c.61.18 1.31.34 1.94.46l-.52 1.42ZM5.84 4.45c0-1.49-.7-2.71-1.94-2.71S1.93 2.96 1.93 4.49 2.66 7.2 3.9 7.2s1.94-1.16 1.94-2.75m8.42 2.18c0 .77.02 1.39.05 1.88h-1.58l-.08-.83h-.04c-.23.36-.78.96-1.83.96-1.2 0-2.06-.74-2.06-2.55V2.65h1.82V5.8c0 .85.28 1.37.92 1.37.5 0 .8-.35.91-.63.05-.11.07-.24.07-.4V2.65h1.82zm3.35-5.61c0 .5-.37.91-.98.91-.58 0-.95-.41-.95-.91s.38-.91.97-.91.95.4.96.91m-1.88 7.5V2.65h1.82v5.87zm7.45-.16c-.32.16-.94.28-1.63.28-1.9 0-3.11-1.16-3.11-3 0-1.71 1.18-3.12 3.36-3.12.48 0 1.01.08 1.39.23L22.9 4.1c-.22-.1-.54-.18-1.02-.18-.96 0-1.58.68-1.57 1.64 0 1.07.72 1.64 1.61 1.64.43 0 .77-.07 1.04-.19l.22 1.34Zm3.07-3.24h.02c.13-.25.28-.49.42-.71l1.19-1.76h2.19l-2.1 2.38 2.4 3.49h-2.24L26.7 6.11l-.46.58v1.83h-1.82V0h1.82v5.12Zm6.93-4.1c0 .5-.37.91-.98.91-.58 0-.95-.41-.95-.91s.38-.91.97-.91.95.4.96.91m-1.88 7.5V2.65h1.82v5.87zm5.56-7.45v1.58h1.31v1.34h-1.31v2.12c0 .71.18 1.03.72 1.03.25 0 .37-.01.54-.05v1.38c-.22.08-.66.16-1.16.16-.59 0-1.08-.2-1.38-.5-.34-.35-.5-.91-.5-1.74v-2.4h-.78V2.65h.78V1.56l1.79-.49Zm6.67-.64v4.64c0 1.4.54 2.11 1.46 2.11s1.49-.67 1.49-2.11V.43h1.82v4.53c0 2.49-1.26 3.68-3.37 3.68S41.7 7.5 41.7 4.93V.43h1.82Zm8.2 0v8.08h-1.82V.43z"/></svg>